<?xml version="1.0" standalone="no"?><!DOCTYPE svg PUBLIC "-//W3C//DTD SVG 1.1//EN" "http://www.w3.org/Graphics/SVG/1.1/DTD/svg11.dtd"><svg t="1585962467708" class="icon" viewBox="0 0 1024 1024" version="1.1" xmlns="http://www.w3.org/2000/svg" p-id="2062" xmlns:xlink="http://www.w3.org/1999/xlink" width="200" height="200"><defs><style type="text/css"></style></defs><path d="M980.138667 781.141333c0 59.221333-97.621333 62.72-218.026667 62.72s-218.026667-3.413333-218.026667-62.72S641.706667 673.877333 762.112 673.877333s218.026667 48.042667 218.026667 107.264z" fill="#55C179" p-id="2063"></path><path d="M936.362667 716.629333c1.365333 4.864 2.133333 9.813333 2.133333 14.933334 0 59.221333-97.621333 62.72-218.026667 62.72-72.448 0-136.704-1.28-176.298666-15.189334 0 0.682667-0.085333 1.365333-0.085334 2.048 0 59.221333 97.621333 62.72 218.026667 62.72s218.026667-3.413333 218.026667-62.72c0-24.234667-16.298667-46.506667-43.776-64.512z" fill="#05A336" p-id="2064"></path><path d="M980.138667 781.141333c0-38.4-40.96-72.021333-102.485334-90.965333-31.744-3.584-69.034667-2.56-112.981333 5.376l-0.597333 22.272s87.552 4.437333 134.314666 25.685333c22.101333 9.984 56.746667 39.68 70.485334 66.986667 7.338667-7.850667 11.264-17.493333 11.264-29.354667z" fill="#05A336" p-id="2065"></path><path d="M437.504 939.264c92.757333 0 180.906667-19.797333 260.437333-55.296 41.045333-18.346667 52.309333-71.253333 22.186667-104.704-69.546667-77.312-170.410667-125.952-282.624-125.952s-213.077333 48.64-282.624 125.952c-30.122667 33.450667-18.858667 86.357333 22.186667 104.704 79.530667 35.498667 167.68 55.296 260.437333 55.296z" fill="#55C179" p-id="2066"></path><path d="M456.106667 692.394667c-5.034667-17.664-20.736-30.72-43.093334-38.314667-94.122667 5.973333-178.858667 46.165333-242.005333 108.288 0.085333 3.754667 0.597333 7.424 1.621333 11.008 12.032 42.24 85.333333 58.368 163.584 36.010667 78.336-22.357333 132.010667-74.752 119.893334-116.992z" fill="#7CE597" p-id="2067"></path><path d="M720.213333 779.264a381.678933 381.678933 0 0 0-83.370666-69.546667c2.645333 2.816 5.290667 5.546667 7.850666 8.448 30.122667 33.450667 18.858667 86.357333-22.186666 104.704-79.530667 35.584-167.68 55.296-260.437334 55.296-78.250667 0-153.173333-14.08-222.464-39.765333a65.962667 65.962667 0 0 0 37.546667 45.653333c79.530667 35.584 167.68 55.296 260.437333 55.296s180.906667-19.797333 260.437334-55.296c41.045333-18.517333 52.224-71.338667 22.186666-104.789333z" fill="#05A336" p-id="2068"></path><path d="M292.693333 400.128c-6.144 0-12.117333 0.597333-17.92 1.621333-21.162667-30.805333-60.416-51.541333-105.472-51.541333-56.490667 0-103.936 32.597333-117.930666 76.8-29.013333 4.437333-51.370667 29.44-51.370667 59.818667a60.416 60.416 0 0 0 95.061333 49.493333c20.565333 13.397333 46.336 21.418667 74.325334 21.418667 28.842667 0 55.381333-8.533333 76.202666-22.698667 13.482667 7.765333 29.696 12.202667 47.104 12.202667 47.104 0 85.333333-32.938667 85.333334-73.472 0-40.704-38.229333-73.642667-85.333334-73.642667z" fill="#FFE3E3" p-id="2069"></path><path d="M913.664 164.096c-3.84 0-7.68 0.341333-11.264 1.024-13.312-19.370667-38.058667-32.426667-66.389333-32.426667-35.584 0-65.450667 20.48-74.24 48.384a37.981867 37.981867 0 0 0-32.341334 37.632 38.0416 38.0416 0 0 0 59.904 31.146667c12.970667 8.448 29.184 13.482667 46.762667 13.482667 18.176 0 34.816-5.376 48.042667-14.336 8.533333 4.864 18.688 7.68 29.696 7.68 29.696 0 53.76-20.736 53.76-46.250667-0.170667-25.6-24.234667-46.336-53.930667-46.336z" fill="#FF9797" p-id="2070"></path><path d="M720.213333 779.264a385.450667 385.450667 0 0 0-73.728-63.488C580.266667 694.272 492.544 686.08 377.344 706.816l-0.938667 36.522667s143.445333 7.338667 220.16 42.069333c37.632 16.981333 76.458667 54.186667 97.024 100.352 1.450667-0.597333 2.901333-1.194667 4.266667-1.877333 41.216-18.346667 52.394667-71.168 22.357333-104.618667zM677.376 452.522667l11.178667 10.325333 47.872-6.058667 8.277333-12.8 11.178667 10.325334 60.416-7.68a143.342933 143.342933 0 0 0-109.568-31.658667c-40.96 5.205333-75.605333 27.136-98.133334 58.112l60.416-7.68 8.362667-12.885333z" fill="#05A336" p-id="2071"></path><path d="M816.554667 445.866667c26.282667 122.794667-42.154667 203.690667-77.397334 236.032-10.154667 9.386667-7.253333 26.197333 5.546667 31.402666 14.250667 5.717333 33.365333 8.789333 54.101333-0.512 24.405333-10.922667 33.365333-37.034667 40.96-60.586666 7.594667-23.552 11.861333-48.128 12.373334-72.874667 0.768-36.010667-6.4-72.106667-20.736-105.130667-4.181333-9.642667-8.789333-19.541333-14.848-28.330666z" fill="#E59200" p-id="2072"></path><path d="M818.261333 454.741333c6.144 34.56 5.12 69.973333-3.584 104.106667-1.365333 5.205333-2.816 10.325333-4.522666 15.445333a243.925333 243.925333 0 0 1-51.456 87.808c-4.693333 5.12-9.557333 10.069333-14.506667 15.018667-4.096 4.010667-8.618667 7.509333-10.325333 13.226667-2.816 9.216 1.962667 19.370667 10.922666 22.954666 3.498667 1.365333 7.253333 2.645333 11.349334 3.584 20.309333-23.978667 39.594667-48.042667 53.333333-77.056 18.858667-40.021333 27.392-84.48 22.954667-128.597333-2.218667-22.101333-7.509333-43.861333-15.189334-64.597333l-0.512-0.768c0.426667 2.986667 1.024 5.888 1.536 8.874666z" fill="#FFB814" p-id="2073"></path><path d="M706.304 414.549333c-40.96 5.205333-75.605333 27.136-98.133333 58.112 22.528-30.976 57.173333-34.986667 98.133333-40.192 40.96-5.205333 80.042667-10.581333 109.568 13.738667a143.342933 143.342933 0 0 0-109.568-31.658667z" fill="#55C179" p-id="2074"></path><path d="M933.376 521.216l-14.933333 3.328-38.4-29.184-0.768-15.274667-14.933334 3.328-48.469333-36.864c37.717333-6.314667 77.824 2.389333 110.677333 27.306667s51.882667 61.354667 55.893334 99.413333l-48.469334-36.864-0.597333-15.189333z" fill="#05A336" p-id="2075"></path><path d="M926.72 473.941333c32.853333 25.002667 51.882667 61.354667 55.893333 99.413334-4.010667-38.058667-32-58.88-64.853333-83.882667-32.853333-25.002667-64-49.152-101.717333-42.837333 37.632-6.314667 77.824 2.304 110.677333 27.306666z" fill="#55C179" p-id="2076"></path><path d="M955.306667 452.522667l-11.178667 10.325333-47.872-6.058667-8.277333-12.8-11.178667 10.325334-60.416-7.68c29.525333-24.32 68.608-36.864 109.568-31.658667s75.605333 27.136 98.133333 58.112l-60.416-7.68-8.362666-12.885333z" fill="#05A336" p-id="2077"></path><path d="M925.866667 414.890667c40.96 5.205333 75.605333 27.136 98.133333 58.112-22.528-30.976-57.173333-34.986667-98.133333-40.192-40.96-5.205333-80.042667-10.581333-109.568 13.738666 29.525333-24.234667 68.608-36.864 109.568-31.658666z" fill="#55C179" p-id="2078"></path><path d="M698.965333 521.216l14.933334 3.328 38.4-29.184 0.768-15.274667 14.933333 3.328 48.469333-36.864c-37.717333-6.314667-77.824 2.389333-110.677333 27.306667a143.342933 143.342933 0 0 0-55.893333 99.413333l48.469333-36.864 0.597333-15.189333z" fill="#05A336" p-id="2079"></path><path d="M705.621333 473.941333a143.342933 143.342933 0 0 0-55.893333 99.413334c4.010667-38.058667 32-58.88 64.853333-83.882667 32.853333-25.002667 64-49.152 101.717334-42.837333-37.717333-6.314667-77.824 2.304-110.677334 27.306666z" fill="#55C179" p-id="2080"></path><path d="M865.536 394.496l14.933333 3.328 38.4-29.184 0.768-15.274667 14.933334 3.328 48.469333-36.864c-37.717333-6.314667-77.824 2.389333-110.677333 27.306667a143.342933 143.342933 0 0 0-55.893334 99.413333l48.469334-36.864 0.597333-15.189333z" fill="#05A336" p-id="2081"></path><path d="M872.277333 347.221333a143.342933 143.342933 0 0 0-55.893333 99.413334c4.010667-38.058667 32-58.88 64.853333-83.882667 32.853333-25.002667 64-49.152 101.717334-42.837333-37.717333-6.314667-77.824 2.304-110.677334 27.306666z" fill="#55C179" p-id="2082"></path><path d="M766.378667 393.728l-15.104 3.413333-38.997334-29.610666-0.768-15.445334-15.104 3.413334-49.237333-37.461334c38.314667-6.4 79.018667 2.389333 112.384 27.733334 33.365333 25.344 52.736 62.293333 56.746667 100.864l-49.237334-37.461334-0.682666-15.445333z" fill="#05A336" p-id="2083"></path><path d="M759.552 345.770667c33.365333 25.344 52.736 62.293333 56.746667 100.864-4.096-38.570667-32.512-59.818667-65.877334-85.162667-33.365333-25.344-65.024-49.92-103.253333-43.52 38.314667-6.4 79.018667 2.389333 112.384 27.818667z" fill="#55C179" p-id="2084"></path><path d="M250.282667 308.565333l18.346666 16.981334 78.421334-9.984 13.568-21.077334 18.346666 16.981334 99.072-12.629334c-48.384-39.850667-112.469333-60.416-179.541333-51.882666S174.506667 291.498667 137.642667 342.186667l99.072-12.629334 13.568-20.992z" fill="#55C179" p-id="2085"></path><path d="M297.728 246.272c-67.072 8.533333-123.989333 44.544-160.853333 95.232 36.864-50.688 93.696-57.344 160.853333-65.877333 67.072-8.533333 131.157333-17.322667 179.541333 22.613333-48.384-39.936-112.469333-60.501333-179.541333-51.968z" fill="#7CE597" p-id="2086"></path><path d="M285.610667 421.12l24.405333 5.546667 62.890667-47.872 1.194666-25.002667 24.405334 5.546667 79.445333-60.416c-61.866667-10.325333-127.573333 3.84-181.418667 44.8s-85.077333 100.522667-91.648 162.901333l79.445334-60.416 1.28-25.088z" fill="#55C179" p-id="2087"></path><path d="M296.618667 343.637333c-53.845333 40.96-85.077333 100.522667-91.648 162.901334 6.570667-62.378667 52.48-96.512 106.325333-137.472 53.845333-40.96 104.96-80.554667 166.741333-70.229334-61.866667-10.325333-127.658667 3.925333-181.418666 44.8z" fill="#7CE597" p-id="2088"></path><path d="M669.866667 421.12l-24.405334 5.546667-62.890666-47.872-1.194667-25.002667-24.405333 5.546667-79.445334-60.416c61.866667-10.325333 127.573333 3.84 181.418667 44.8 53.845333 40.96 85.077333 100.522667 91.648 162.901333l-79.445333-60.416-1.28-25.088z" fill="#55C179" p-id="2089"></path><path d="M658.858667 343.637333c53.845333 40.96 85.077333 100.522667 91.648 162.901334-6.570667-62.378667-52.48-96.512-106.325334-137.472-53.845333-40.96-104.96-80.554667-166.741333-70.229334 61.866667-10.325333 127.573333 3.925333 181.418667 44.8z" fill="#7CE597" p-id="2090"></path><path d="M558.677333 213.418667l24.405334 5.546666 62.890666-47.872 1.194667-25.002666 24.405333 5.546666 79.445334-60.416c-61.866667-10.325333-127.573333 3.84-181.418667 44.8s-85.077333 100.522667-91.648 162.901334l79.445333-60.416 1.28-25.088z" fill="#55C179" p-id="2091"></path><path d="M569.685333 136.021333c-53.845333 40.96-85.077333 100.522667-91.648 162.901334 6.570667-62.378667 52.48-96.512 106.325334-137.472 53.845333-40.96 104.96-80.554667 166.741333-70.229334-61.781333-10.410667-127.573333 3.84-181.418667 44.8z" fill="#7CE597" p-id="2092"></path><path d="M396.117333 212.138667l-24.746666 5.546666-63.829334-48.554666-1.194666-25.344-24.746667 5.546666-80.64-61.354666c62.72-10.496 129.536 3.925333 184.149333 45.482666s86.357333 102.058667 93.013334 165.290667l-80.64-61.354667-1.365334-25.258666z" fill="#55C179" p-id="2093"></path><path d="M385.024 133.546667c54.613333 41.557333 86.357333 102.058667 93.013333 165.290666-6.656-63.232-53.248-97.962667-107.946666-139.52-54.613333-41.557333-106.496-81.749333-169.301334-71.253333 62.805333-10.496 129.536 3.925333 184.234667 45.482667z" fill="#7CE597" p-id="2094"></path><path d="M705.792 308.565333l-18.346667 16.981334-78.421333-9.984-13.568-21.077334-18.346667 16.981334-99.072-12.629334c48.384-39.850667 112.469333-60.416 179.541334-51.882666S781.568 291.498667 818.346667 342.186667l-98.986667-12.629334-13.568-20.992z" fill="#55C179" p-id="2095"></path><path d="M657.578667 246.954667c67.072 8.533333 123.989333 44.544 160.853333 95.232-36.864-50.688-93.696-57.344-160.853333-65.877334-67.072-8.533333-131.157333-17.322667-179.541334 22.613334 48.384-39.936 112.469333-60.501333 179.541334-51.968z" fill="#7CE597" p-id="2096"></path><path d="M478.378667 297.642667c43.093333 201.216-69.12 333.824-126.890667 386.901333-16.725333 15.36-11.946667 43.008 9.130667 51.456 23.296 9.386667 54.613333 14.421333 88.746666-0.853333 40.021333-17.92 54.698667-60.672 67.157334-99.328 12.458667-38.570667 19.456-78.848 20.224-119.381334 1.194667-58.965333-10.496-118.186667-33.962667-172.288-6.912-15.957333-14.506667-32.170667-24.405333-46.506666z" fill="#E59200" p-id="2097"></path><path d="M481.194667 312.149333c10.069333 56.576 8.448 114.688-5.888 170.581334-2.218667 8.533333-4.693333 16.981333-7.424 25.344a400.298667 400.298667 0 0 1-84.394667 143.957333c-7.68 8.448-15.701333 16.554667-23.808 24.576-6.656 6.570667-14.08 12.373333-16.981333 21.674667-4.608 15.104 3.157333 31.744 17.834666 37.632 5.717333 2.304 11.946667 4.352 18.517334 5.888 33.28-39.338667 64.938667-78.762667 87.381333-126.293334 30.976-65.536 44.8-138.410667 37.632-210.773333-3.584-36.181333-12.288-71.850667-24.917333-105.898667-0.256-0.426667-0.512-0.853333-0.853334-1.194666 1.109333 4.864 2.048 9.728 2.901334 14.506666z" fill="#FFB814" p-id="2098"></path></svg>